<svg width="51" height="88" viewBox="0 0 51 88" fill="none" xmlns="http://www.w3.org/2000/svg">
<g id="Arrow-down">
<path id="Vector" fill-rule="evenodd" clip-rule="evenodd" d="M25.316 0C26.062 0 26.7773 0.32924 27.3048 0.915291C27.8322 1.50134 28.1285 2.2962 28.1285 3.125V76.8313L45.8248 57.1625C46.3529 56.5757 47.0692 56.2461 47.816 56.2461C48.5629 56.2461 49.2792 56.5757 49.8073 57.1625C50.3354 57.7493 50.6321 58.5452 50.6321 59.375C50.6321 60.2048 50.3354 61.0007 49.8073 61.5875L27.3073 86.5875C27.046 86.8785 26.7357 87.1094 26.394 87.267C26.0523 87.4245 25.686 87.5056 25.316 87.5056C24.9461 87.5056 24.5798 87.4245 24.2381 87.267C23.8964 87.1094 23.586 86.8785 23.3248 86.5875L0.824801 61.5875C0.29669 61.0007 -1.75967e-08 60.2048 0 59.375C1.75967e-08 58.5452 0.29669 57.7493 0.824801 57.1625C1.35291 56.5757 2.06919 56.2461 2.81605 56.2461C3.56291 56.2461 4.27919 56.5757 4.8073 57.1625L22.5035 76.8313V3.125C22.5035 2.2962 22.7999 1.50134 23.3273 0.915291C23.8547 0.32924 24.5701 0 25.316 0Z" fill="#E5E5E5"/>
</g>
</svg>
