<svg width="36" height="61" viewBox="0 0 36 61" fill="none" xmlns="http://www.w3.org/2000/svg">
<g id="Arrow-down">
<path id="Vector" fill-rule="evenodd" clip-rule="evenodd" d="M16.9965 60.3314C16.4957 60.3213 16.02 60.0859 15.674 59.677C15.328 59.268 15.1401 58.7191 15.1516 58.1509L16.1732 7.62307L4.01977 20.8664C3.65708 21.2615 3.17162 21.4778 2.67019 21.4676C2.16877 21.4575 1.69245 21.2218 1.34603 20.8123C0.999597 20.4029 0.811439 19.8533 0.82294 19.2844C0.834442 18.7155 1.04466 18.174 1.40736 17.7789L16.8598 0.946012C17.0392 0.750056 17.2508 0.595983 17.4824 0.492623C17.7139 0.389262 17.961 0.338643 18.2094 0.343664C18.4577 0.348686 18.7025 0.40925 18.9298 0.521887C19.157 0.634523 19.3621 0.797022 19.5335 1.00007L34.2929 18.4437C34.6393 18.8532 34.8275 19.4028 34.816 19.9717C34.8045 20.5406 34.5943 21.0821 34.2316 21.4772C33.8689 21.8723 33.3834 22.0886 32.882 22.0784C32.3806 22.0683 31.9043 21.8326 31.5578 21.4232L19.9497 7.69942L18.9281 58.2273C18.9166 58.7955 18.7066 59.3363 18.3444 59.7309C17.9821 60.1255 17.4973 60.3415 16.9965 60.3314Z" fill="#E5E5E5"/>
</g>
</svg>
