<svg width="100" height="100" viewBox="0 0 100 100" fill="none" xmlns="http://www.w3.org/2000/svg">
<path d="M50 56.2502C48.3424 56.2502 46.7527 55.5917 45.5806 54.4196C44.4085 53.2475 43.75 51.6578 43.75 50.0002C43.75 48.3426 44.4085 46.7528 45.5806 45.5807C46.7527 44.4086 48.3424 43.7502 50 43.7502C51.6576 43.7502 53.2473 44.4086 54.4194 45.5807C55.5915 46.7528 56.25 48.3426 56.25 50.0002C56.25 51.6578 55.5915 53.2475 54.4194 54.4196C53.2473 55.5917 51.6576 56.2502 50 56.2502ZM47.8 68.7252C48.5292 69.6002 49.2625 70.4502 50 71.2627C50.7375 70.4502 51.4708 69.6043 52.2 68.7252C50.7335 68.7563 49.2665 68.7563 47.8 68.7252ZM39.4875 68.2043C36.2878 67.8714 33.1092 67.3595 29.9667 66.671C29.6542 68.1293 29.4167 69.546 29.2583 70.9043C28.4667 77.5002 29.5708 81.5085 31.25 82.4752C32.9292 83.446 36.95 82.396 42.2708 78.4168C43.3667 77.596 44.4708 76.6835 45.5792 75.6877C43.4104 73.309 41.3767 70.8106 39.4875 68.2043ZM70.0333 66.671C66.8917 67.3639 63.7128 67.8759 60.5125 68.2043C58.6233 70.8106 56.5896 73.309 54.4208 75.6877C55.5292 76.6877 56.6333 77.596 57.7292 78.4168C63.05 82.396 67.0708 83.446 68.75 82.4752C70.4292 81.5085 71.5292 77.5002 70.7458 70.9043C70.5739 69.4832 70.3375 68.0707 70.0375 66.671H70.0333ZM76.075 65.0585C78.4792 76.0543 77.2167 84.8085 71.875 87.8918C66.5333 90.9752 58.3208 87.6918 50 80.1127C41.6792 87.6918 33.4667 90.971 28.125 87.8877C22.7833 84.8043 21.5208 76.0543 23.9208 65.0543C13.1958 61.6418 6.25 56.1668 6.25 50.0002C6.25 43.8335 13.1958 38.3627 23.9208 34.9418C21.5208 23.946 22.7833 15.1918 28.125 12.1085C33.4667 9.02516 41.6792 12.3085 50 19.8877C58.3208 12.3085 66.5333 9.02933 71.875 12.1127C77.2167 15.196 78.4792 23.946 76.0792 34.946C86.8042 38.3585 93.75 43.8335 93.75 50.0002C93.75 56.1668 86.8042 61.6377 76.0792 65.0585H76.075ZM45.575 24.3127C44.5154 23.3535 43.4129 22.4429 42.2708 21.5835C36.95 17.6043 32.9292 16.5543 31.25 17.5252C29.5708 18.4918 28.4708 22.5002 29.2542 29.096C29.4208 30.4585 29.6542 31.871 29.9625 33.3293C33.1064 32.6407 36.2864 32.1288 39.4875 31.796C41.4667 29.0752 43.5083 26.571 45.5792 24.3127H45.575ZM60.5125 31.796C63.8542 32.146 67.0458 32.6668 70.0333 33.3293C70.3458 31.871 70.5833 30.4543 70.7417 29.096C71.5333 22.5002 70.4292 18.4918 68.75 17.5252C67.0708 16.5543 63.05 17.6043 57.7292 21.5835C56.5857 22.4428 55.4818 23.3534 54.4208 24.3127C56.4917 26.571 58.5333 29.0752 60.5125 31.796ZM52.2 31.2752C51.4708 30.4002 50.7375 29.5502 50 28.7377C49.2625 29.5502 48.5292 30.396 47.8 31.2752C49.2665 31.244 50.7335 31.244 52.2 31.2752ZM34.8833 61.2668C34.1232 60.0131 33.3897 58.7434 32.6833 57.4585C32.2875 58.5293 31.9208 59.5835 31.5875 60.6293C32.6583 60.8627 33.7583 61.0752 34.8792 61.2668H34.8833ZM42.9333 62.2418C47.638 62.5913 52.362 62.5913 57.0667 62.2418C59.7217 58.3416 62.0837 54.2498 64.1333 50.0002C62.0837 45.7505 59.7217 41.6587 57.0667 37.7585C52.362 37.4091 47.638 37.4091 42.9333 37.7585C40.2783 41.6587 37.9163 45.7505 35.8667 50.0002C37.9163 54.2498 40.2783 58.3416 42.9333 62.2418ZM67.3167 42.5418C67.7125 41.471 68.0792 40.4168 68.4125 39.371C67.3202 39.134 66.2227 38.9214 65.1208 38.7335C65.8796 39.9873 66.6117 41.257 67.3167 42.5418ZM25.5417 40.9877C24.125 41.446 22.7833 41.946 21.525 42.4877C15.4208 45.1043 12.5 48.0627 12.5 50.0002C12.5 51.9377 15.4167 54.896 21.525 57.5127C22.7833 58.0543 24.125 58.5543 25.5417 59.0127C26.4667 56.096 27.6125 53.071 28.9792 50.0002C27.6659 47.0625 26.5183 44.0537 25.5417 40.9877ZM31.5833 39.371C31.9208 40.4127 32.2875 41.471 32.6833 42.5377C33.3897 41.2542 34.1232 39.9859 34.8833 38.7335C33.7583 38.9252 32.6583 39.1377 31.5875 39.371H31.5833ZM74.4583 59.0127C75.875 58.5543 77.2167 58.0543 78.475 57.5127C84.5792 54.896 87.5 51.9377 87.5 50.0002C87.5 48.0627 84.5833 45.1043 78.475 42.4877C77.1595 41.9272 75.8192 41.4267 74.4583 40.9877C73.5333 43.9043 72.3875 46.9293 71.0208 50.0002C72.3875 53.071 73.5333 56.0918 74.4583 59.0127ZM68.4167 60.6293C68.0722 59.5662 67.7054 58.5104 67.3167 57.4627C66.6103 58.7461 65.8768 60.0145 65.1167 61.2668C66.2417 61.0752 67.3417 60.8627 68.4125 60.6293H68.4167Z" fill="#04B500"/>
</svg>
