<svg width="90" height="120" viewBox="0 0 90 120" fill="none" xmlns="http://www.w3.org/2000/svg">
<path d="M22.5101 0H35.4001V5.39H27.9001V10.78H35.4001V16.17H22.5101V0Z" fill="#04B500"/>
<path d="M37.975 0H50.87V4.69H43.37V5.625H50.87V16.405H37.975V11.485H45.475V10.545H37.975V0Z" fill="#04B500"/>
<path d="M53.45 0H66.335V4.69H58.835V5.625H66.335V16.405H53.45V11.485H60.95V10.545H53.45V0Z" fill="#04B500"/>
<path fill-rule="evenodd" clip-rule="evenodd" d="M44.955 120L10.235 110.36L0 23.5852H90L79.77 110.35L44.955 120ZM20.235 62.8652L21.19 73.5052H58.075L56.84 87.3052L44.97 90.5152H44.96L33.11 87.3152L32.35 78.8302H21.665L23.155 95.5402L44.955 101.59L66.79 95.5402L69.45 65.7202L69.71 62.8652L71.63 41.3202H18.32L19.29 51.9652H59.97L59 62.8652H20.235Z" fill="#04B500"/>
</svg>
