<svg width="46" height="42" viewBox="0 0 46 42" fill="none" xmlns="http://www.w3.org/2000/svg">
<path d="M29.9362 1.94124C29.9941 1.75293 30.0143 1.55506 29.9958 1.35892C29.9772 1.16278 29.9202 0.972215 29.828 0.798108C29.7358 0.624001 29.6102 0.469761 29.4584 0.344193C29.3065 0.218625 29.1315 0.12419 28.9432 0.0662778C28.7549 0.0083659 28.557 -0.011888 28.3608 0.00667232C28.1647 0.0252327 27.9741 0.0822439 27.8 0.174451C27.6259 0.266658 27.4717 0.392255 27.3461 0.544071C27.2206 0.695886 27.1261 0.870948 27.0682 1.05926L15.0684 40.0586C14.9515 40.4389 14.9904 40.8501 15.1766 41.2017C15.3628 41.5533 15.6811 41.8166 16.0614 41.9335C16.4417 42.0505 16.8529 42.0116 17.2045 41.8254C17.5562 41.6391 17.8194 41.3209 17.9364 40.9406L29.9362 1.94124V1.94124ZM13.0645 9.43811C13.2041 9.57745 13.315 9.74297 13.3906 9.9252C13.4662 10.1074 13.5051 10.3028 13.5051 10.5001C13.5051 10.6974 13.4662 10.8928 13.3906 11.075C13.315 11.2572 13.2041 11.4227 13.0645 11.5621L3.62362 20.9999L13.0645 30.4377C13.3461 30.7194 13.5043 31.1014 13.5043 31.4997C13.5043 31.898 13.3461 32.28 13.0645 32.5617C12.7828 32.8434 12.4008 33.0016 12.0025 33.0016C11.6041 33.0016 11.2221 32.8434 10.9405 32.5617L0.440674 22.0619C0.300986 21.9226 0.19016 21.757 0.114542 21.5748C0.0389237 21.3926 0 21.1972 0 20.9999C0 20.8026 0.0389237 20.6072 0.114542 20.425C0.19016 20.2428 0.300986 20.0773 0.440674 19.9379L10.9405 9.43811C11.0798 9.29842 11.2453 9.1876 11.4276 9.11198C11.6098 9.03636 11.8052 8.99744 12.0025 8.99744C12.1998 8.99744 12.3951 9.03636 12.5774 9.11198C12.7596 9.1876 12.9251 9.29842 13.0645 9.43811V9.43811ZM31.9401 9.43811C31.8004 9.57745 31.6896 9.74297 31.614 9.9252C31.5384 10.1074 31.4994 10.3028 31.4994 10.5001C31.4994 10.6974 31.5384 10.8928 31.614 11.075C31.6896 11.2572 31.8004 11.4227 31.9401 11.5621L41.381 20.9999L31.9401 30.4377C31.8007 30.5772 31.69 30.7428 31.6146 30.925C31.5391 31.1072 31.5002 31.3025 31.5002 31.4997C31.5002 31.6969 31.5391 31.8922 31.6146 32.0745C31.69 32.2567 31.8007 32.4222 31.9401 32.5617C32.0796 32.7012 32.2451 32.8118 32.4274 32.8873C32.6096 32.9627 32.8049 33.0016 33.0021 33.0016C33.1993 33.0016 33.3946 32.9627 33.5768 32.8873C33.7591 32.8118 33.9246 32.7012 34.0641 32.5617L44.5639 22.0619C44.7036 21.9226 44.8144 21.757 44.89 21.5748C44.9656 21.3926 45.0046 21.1972 45.0046 20.9999C45.0046 20.8026 44.9656 20.6072 44.89 20.425C44.8144 20.2428 44.7036 20.0773 44.5639 19.9379L34.0641 9.43811C33.9247 9.29842 33.7592 9.1876 33.577 9.11198C33.3948 9.03636 33.1994 8.99744 33.0021 8.99744C32.8048 8.99744 32.6094 9.03636 32.4272 9.11198C32.245 9.1876 32.0795 9.29842 31.9401 9.43811V9.43811Z" fill="#A8A8A8"/>
</svg>
