<svg width="90" height="120" viewBox="0 0 90 120" fill="none" xmlns="http://www.w3.org/2000/svg">
<path d="M10.4 0H15.81V5.34499H20.76V0H26.17V16.18H20.76V10.765H15.81V16.18H10.405V0H10.4Z" fill="#04B500"/>
<path d="M33.2801 5.36499H28.5201V0H43.4551V5.36499H38.6901V16.18H33.2801V5.36499Z" fill="#04B500"/>
<path d="M45.8251 0H51.4651L54.9351 5.68499L58.4001 0H64.0401V16.18H58.6551V8.15998L54.9351 13.915H54.8401L51.1151 8.16499V16.18H45.8251V0Z" fill="#04B500"/>
<path d="M66.73 0H72.145V10.835H79.745V16.185H66.73V0Z" fill="#04B500"/>
<path fill-rule="evenodd" clip-rule="evenodd" d="M10.23 110.36L0 23.5852H90L79.765 110.35L44.95 120L10.23 110.36ZM30.915 62.8601L29.945 51.9602H70.67L71.62 41.3202H18.32L21.19 73.5051H58.075L56.84 87.3051L44.97 90.5151H44.96L33.11 87.3151L32.35 78.8301H21.66L23.15 95.5401L44.95 101.59L66.785 95.5401L69.445 65.7201L69.705 62.8651H30.915V62.8601Z" fill="#04B500"/>
</svg>
