<svg width="90" height="100" viewBox="0 0 90 100" fill="none" xmlns="http://www.w3.org/2000/svg">
<path fill-rule="evenodd" clip-rule="evenodd" d="M84 28.087L45 2.80029L6 28.087V71.9136L12.036 75.827L24.378 70.2803C26.0389 69.533 27.4612 68.2519 28.4627 66.601C29.4643 64.9501 29.9996 63.0046 30 61.0136V26.667H36V61.0136C35.9996 64.3325 35.1073 67.5757 33.4376 70.3277C31.7679 73.0796 29.3968 75.215 26.628 76.4603L18.588 80.0736L45 97.2003L84 71.9203V28.087ZM42 40.0003C42 36.4641 43.2643 33.0727 45.5147 30.5722C47.7652 28.0717 50.8174 26.667 54 26.667H61.002C67.074 26.667 72 32.1336 72 38.887V40.0003H66V38.887C66 38.1577 65.8707 37.4356 65.6196 36.7618C65.3684 36.088 65.0002 35.4758 64.5361 34.9602C64.072 34.4445 63.521 34.0354 62.9146 33.7563C62.3083 33.4773 61.6583 33.3336 61.002 33.3336H54C52.4087 33.3336 50.8826 34.036 49.7574 35.2863C48.6321 36.5365 48 38.2322 48 40.0003C48 41.7684 48.6321 43.4641 49.7574 44.7143C50.8826 45.9646 52.4087 46.667 54 46.667H60C63.1826 46.667 66.2348 48.0717 68.4853 50.5722C70.7357 53.0727 72 56.4641 72 60.0003C72 63.5365 70.7357 66.9279 68.4853 69.4284C66.2348 71.9289 63.1826 73.3336 60 73.3336H54C50.8174 73.3336 47.7652 71.9289 45.5147 69.4284C43.2643 66.9279 42 63.5365 42 60.0003H48C48 61.7684 48.6321 63.4641 49.7574 64.7143C50.8826 65.9646 52.4087 66.667 54 66.667H60C61.5913 66.667 63.1174 65.9646 64.2426 64.7143C65.3679 63.4641 66 61.7684 66 60.0003C66 58.2322 65.3679 56.5365 64.2426 55.2863C63.1174 54.036 61.5913 53.3336 60 53.3336H54C50.8174 53.3336 47.7652 51.9289 45.5147 49.4284C43.2643 46.9279 42 43.5365 42 40.0003Z" fill="#04B500"/>
</svg>
