<svg width="100" height="120" viewBox="0 0 100 120" fill="none" xmlns="http://www.w3.org/2000/svg">
<path d="M89.2857 7.5H10.7143C4.79911 7.5 0 12.5391 0 18.75V101.25C0 107.461 4.79911 112.5 10.7143 112.5H89.2857C95.2009 112.5 100 107.461 100 101.25V18.75C100 12.5391 95.2009 7.5 89.2857 7.5ZM54.4196 89.3906C54.4196 99.6094 48.7054 104.273 40.3795 104.273C32.8571 104.273 28.5045 100.195 26.2723 95.25L33.9286 90.3984C35.4018 93.1406 36.7411 95.4609 39.9777 95.4609C43.058 95.4609 45.0223 94.1953 45.0223 89.25V55.7109H54.4196V89.3906ZM76.6518 104.273C67.9241 104.273 62.2768 99.9141 59.5313 94.1953L67.1875 89.5547C69.1964 93 71.8304 95.5547 76.4509 95.5547C80.3348 95.5547 82.8348 93.5156 82.8348 90.6797C82.8348 87.3047 80.2902 86.1094 75.9821 84.1172L73.6384 83.0625C66.8527 80.0391 62.3661 76.2188 62.3661 68.1797C62.3661 60.7734 67.7455 55.1484 76.1161 55.1484C82.0982 55.1484 86.3839 57.3281 89.4643 63.0469L82.1429 67.9688C80.5357 64.9453 78.7946 63.75 76.0938 63.75C73.3482 63.75 71.6071 65.5781 71.6071 67.9688C71.6071 70.9219 73.3482 72.1172 77.3884 73.9688L79.7321 75.0234C87.7232 78.6094 92.2098 82.2891 92.2098 90.5391C92.2098 99.3984 85.558 104.273 76.6518 104.273Z" fill="#04B500"/>
</svg>
