<svg width="50" height="50" viewBox="0 0 50 50" fill="none" xmlns="http://www.w3.org/2000/svg">
<path d="M10.5158 31.5079C10.5158 34.4048 8.1746 36.7462 5.27773 36.7462C2.38085 36.7462 0.0396423 34.4048 0.0396423 31.5079C0.0396423 28.6112 2.38085 26.27 5.27792 26.27H10.5156V31.5081L10.5158 31.5079ZM13.135 31.5079C13.135 28.6112 15.4762 26.27 18.373 26.27C21.2699 26.27 23.6111 28.6112 23.6111 31.5081V44.6032C23.6111 47.5001 21.2699 49.8415 18.3728 49.8415C15.4764 49.8415 13.135 47.5001 13.135 44.6032V31.5081V31.5079Z" fill="#E01E5A"/>
<path d="M18.373 10.4762C15.4762 10.4762 13.1348 8.13496 13.1348 5.23809C13.1348 2.34121 15.4764 0 18.373 0C21.2697 0 23.6111 2.34121 23.6111 5.23809V10.4764H18.3729L18.373 10.4762ZM18.373 13.135C21.2699 13.135 23.6111 15.4762 23.6111 18.373C23.6111 21.2699 21.2699 23.6111 18.3729 23.6111H5.23828C2.34121 23.6111 0 21.2699 0 18.3729C0 15.4764 2.34121 13.135 5.23809 13.135H18.3729H18.373Z" fill="#36C5F0"/>
<path d="M39.3652 18.373C39.3652 15.4762 41.7065 13.1348 44.6031 13.1348C47.5 13.1348 49.8414 15.4762 49.8414 18.373C49.8414 21.2699 47.5 23.6111 44.6031 23.6111H39.3652V18.3729V18.373ZM36.7461 18.373C36.7461 21.2699 34.4047 23.6111 31.5078 23.6111C28.6111 23.6111 26.2699 21.2699 26.2699 18.3729V5.23828C26.2699 2.34121 28.6111 0 31.5078 0C34.4045 0 36.7459 2.34121 36.7459 5.23809V18.3729L36.7461 18.373Z" fill="#2EB67D"/>
<path d="M31.5078 39.3653C34.4047 39.3653 36.7461 41.7065 36.7461 44.6032C36.7461 47.5001 34.4047 49.8415 31.5078 49.8415C28.6111 49.8415 26.2699 47.5001 26.2699 44.6032V39.3653H31.508H31.5078ZM31.5078 36.7462C28.6111 36.7462 26.2699 34.4048 26.2699 31.5079C26.2699 28.6112 28.6111 26.27 31.508 26.27H44.6428C47.5397 26.27 49.8811 28.6112 49.8811 31.5081C49.8811 34.4048 47.5397 36.7462 44.6428 36.7462H31.508H31.5078Z" fill="#ECB22E"/>
</svg>
