<svg width="50" height="50" viewBox="0 0 50 50" fill="none" xmlns="http://www.w3.org/2000/svg">
<path d="M25 16.6667C22.7899 16.6667 20.6702 17.5447 19.1074 19.1075C17.5446 20.6703 16.6667 22.7899 16.6667 25.0001C16.6667 27.2102 17.5446 29.3298 19.1074 30.8926C20.6702 32.4554 22.7899 33.3334 25 33.3334C27.2101 33.3334 29.3298 32.4554 30.8926 30.8926C32.4554 29.3298 33.3333 27.2102 33.3333 25.0001C33.3333 22.7899 32.4554 20.6703 30.8926 19.1075C29.3298 17.5447 27.2101 16.6667 25 16.6667Z" fill="#FF5AB3"/>
<path fill-rule="evenodd" clip-rule="evenodd" d="M15 0C11.0218 0 7.20644 1.58035 4.3934 4.3934C1.58035 7.20644 0 11.0218 0 15L0 35C0 38.9782 1.58035 42.7936 4.3934 45.6066C7.20644 48.4196 11.0218 50 15 50H35C38.9782 50 42.7936 48.4196 45.6066 45.6066C48.4196 42.7936 50 38.9782 50 35V15C50 11.0218 48.4196 7.20644 45.6066 4.3934C42.7936 1.58035 38.9782 0 35 0L15 0ZM13.3333 25C13.3333 21.9058 14.5625 18.9383 16.7504 16.7504C18.9383 14.5625 21.9058 13.3333 25 13.3333C28.0942 13.3333 31.0617 14.5625 33.2496 16.7504C35.4375 18.9383 36.6667 21.9058 36.6667 25C36.6667 28.0942 35.4375 31.0617 33.2496 33.2496C31.0617 35.4375 28.0942 36.6667 25 36.6667C21.9058 36.6667 18.9383 35.4375 16.7504 33.2496C14.5625 31.0617 13.3333 28.0942 13.3333 25ZM36.6667 13.3333H40V10H36.6667V13.3333Z" fill="#FF5AB3"/>
</svg>
