<svg width="42" height="42" viewBox="0 0 42 42" fill="none" xmlns="http://www.w3.org/2000/svg">
<path d="M32.05 3.5699e-08C33.3789 -0.000147053 34.6584 0.454243 35.6297 1.27134C36.6011 2.08844 37.192 3.2073 37.2829 4.40182L37.2946 4.72314V25.993C37.0149 26.161 36.7468 26.3584 36.4997 26.581L28.5537 33.7382L26.4372 31.8271C25.5065 30.9864 24.2577 30.4936 22.9408 30.4473H28.5537C29.0173 30.4473 29.462 30.2814 29.7898 29.986C30.1177 29.6906 30.3018 29.29 30.3018 28.8722C30.3018 28.4545 30.1177 28.0539 29.7898 27.7585C29.462 27.4631 29.0173 27.2972 28.5537 27.2972H16.8898C16.4261 27.2972 15.9815 27.4631 15.6536 27.7585C15.3258 28.0539 15.1416 28.4545 15.1416 28.8722C15.1416 29.29 15.3258 29.6906 15.6536 29.986C15.9815 30.2814 16.4261 30.4473 16.8898 30.4473H22.5143C21.4964 30.4849 20.5128 30.7887 19.6835 31.3217C18.8541 31.8547 18.215 32.5937 17.8442 33.4485C17.4734 34.3034 17.3869 35.237 17.5953 36.1354C17.8038 37.0338 18.2981 37.8581 19.0179 38.5075L22.8826 42H5.24455C3.91564 42.0001 2.63621 41.5458 1.66485 40.7287C0.69348 39.9116 0.102612 38.7927 0.0116549 37.5982L3.96225e-08 37.2748V4.72524C-0.000163215 3.52791 0.504165 2.37517 1.41106 1.49999C2.31796 0.624811 3.55979 0.0924511 4.88559 0.0105008L5.24455 3.5699e-08H32.05ZM11.6546 12.0756C11.6546 11.5186 11.409 10.9845 10.9718 10.5906C10.5347 10.1968 9.94184 9.9755 9.32364 9.9755C8.70545 9.9755 8.11257 10.1968 7.67544 10.5906C7.23831 10.9845 6.99273 11.5186 6.99273 12.0756C6.99273 12.6326 7.23831 13.1668 7.67544 13.5606C8.11257 13.9544 8.70545 14.1757 9.32364 14.1757C9.94184 14.1757 10.5347 13.9544 10.9718 13.5606C11.409 13.1668 11.6546 12.6326 11.6546 12.0756ZM16.8898 10.4984C16.4261 10.4984 15.9815 10.6644 15.6536 10.9598C15.3258 11.2551 15.1416 11.6558 15.1416 12.0735C15.1416 12.4912 15.3258 12.8919 15.6536 13.1873C15.9815 13.4826 16.4261 13.6486 16.8898 13.6486H28.5537C29.0173 13.6486 29.462 13.4826 29.7898 13.1873C30.1177 12.8919 30.3018 12.4912 30.3018 12.0735C30.3018 11.6558 30.1177 11.2551 29.7898 10.9598C29.462 10.6644 29.0173 10.4984 28.5537 10.4984H16.8898ZM15.1416 20.4739C15.1416 21.3434 15.9248 22.049 16.8898 22.049H28.5537C28.7832 22.049 29.0106 22.0083 29.2227 21.9291C29.4348 21.85 29.6275 21.7339 29.7898 21.5877C29.9521 21.4414 30.0809 21.2678 30.1688 21.0767C30.2566 20.8856 30.3018 20.6808 30.3018 20.4739C30.3018 20.2671 30.2566 20.0623 30.1688 19.8712C30.0809 19.6801 29.9521 19.5064 29.7898 19.3602C29.6275 19.2139 29.4348 19.0979 29.2227 19.0187C29.0106 18.9396 28.7832 18.8988 28.5537 18.8988H16.8898C16.4261 18.8988 15.9815 19.0648 15.6536 19.3602C15.3258 19.6556 15.1416 20.0562 15.1416 20.4739ZM11.6546 20.4739C11.6546 19.9169 11.409 19.3828 10.9718 18.9889C10.5347 18.5951 9.94184 18.3738 9.32364 18.3738C8.70545 18.3738 8.11257 18.5951 7.67544 18.9889C7.23831 19.3828 6.99273 19.9169 6.99273 20.4739C6.99273 21.0309 7.23831 21.5651 7.67544 21.9589C8.11257 22.3528 8.70545 22.574 9.32364 22.574C9.94184 22.574 10.5347 22.3528 10.9718 21.9589C11.409 21.5651 11.6546 21.0309 11.6546 20.4739ZM11.6546 28.8701C11.6546 28.3132 11.409 27.779 10.9718 27.3851C10.5347 26.9913 9.94184 26.77 9.32364 26.77C8.70545 26.77 8.11257 26.9913 7.67544 27.3851C7.23831 27.779 6.99273 28.3132 6.99273 28.8701C6.99273 29.4271 7.23831 29.9613 7.67544 30.3551C8.11257 30.749 8.70545 30.9702 9.32364 30.9702C9.94184 30.9702 10.5347 30.749 10.9718 30.3551C11.409 29.9613 11.6546 29.4271 11.6546 28.8701Z" fill="#A8A8A8"/>
<path d="M28.5536 38.1988L38.9728 28.8113C39.1329 28.6566 39.3259 28.5325 39.5403 28.4464C39.7547 28.3603 39.9862 28.314 40.221 28.3103C40.4557 28.3065 40.6889 28.3454 40.9065 28.4247C41.1242 28.5039 41.322 28.6218 41.488 28.7714C41.654 28.9209 41.7848 29.0991 41.8728 29.2952C41.9607 29.4913 42.0039 29.7014 41.9997 29.9129C41.9956 30.1244 41.9442 30.333 41.8486 30.5262C41.7531 30.7194 41.6153 30.8933 41.4436 31.0375L29.789 41.538C29.4612 41.8329 29.0169 41.9986 28.5536 41.9986C28.0904 41.9986 27.646 41.8329 27.3183 41.538L21.491 36.2856C21.1822 35.987 21.0141 35.5921 21.0221 35.1841C21.0301 34.776 21.2135 34.3867 21.5338 34.0981C21.8541 33.8095 22.2862 33.6442 22.7391 33.637C23.192 33.6298 23.6304 33.7813 23.9617 34.0595L28.5536 38.1967V38.1988Z" fill="#A8A8A8"/>
</svg>
