<svg width="100" height="110" viewBox="0 0 100 110" fill="none" xmlns="http://www.w3.org/2000/svg">
<g id="cib:typescript">
<path id="Vector" d="M0 55V110H100V0H0V55ZM80.5812 50.6138C82.9785 51.2346 85.1573 52.6164 86.8469 54.5875C87.7594 55.66 89.125 57.6297 89.2406 58.1144C89.2719 58.2588 84.9281 61.4625 82.2906 63.2534C82.1938 63.3256 81.8031 62.8787 81.3781 62.1775C80.0938 60.1184 78.7406 59.2247 76.675 59.0631C73.6469 58.8466 71.6937 60.5859 71.7094 63.5044C71.6935 64.2185 71.8384 64.9259 72.1313 65.5634C72.8 67.0863 74.0531 67.9972 77.925 69.8431C85.0875 73.2256 88.1469 75.4634 90.05 78.6328C92.1813 82.1769 92.6531 87.835 91.2219 92.0597C89.6281 96.6247 85.6875 99.7391 80.1531 100.76C78.4437 101.1 74.375 101.045 72.5344 100.671C68.5156 99.8834 64.7062 97.6972 62.3625 94.8337C61.4344 93.7234 59.6437 90.805 59.7594 90.6091C59.8094 90.5369 60.2156 90.2516 60.6719 89.9628L64.3844 87.5978L67.2656 85.7553L67.8688 86.7384C68.7156 88.1512 70.5531 90.0866 71.6625 90.7294C74.8531 92.5925 79.2313 92.3244 81.3969 90.1931C82.275 89.3888 82.7656 88.1513 82.7 86.9C82.7 85.6281 82.5531 85.0575 81.95 84.1053C81.1688 82.8884 79.5906 81.8503 75.0812 79.7019C69.9219 77.2475 67.6906 75.7453 65.675 73.3288C64.4061 71.7381 63.4677 69.8624 62.925 67.8322C62.55 66.275 62.4531 62.37 62.7469 60.8128C63.8063 55.3163 67.5813 51.5041 73 50.3766C74.7594 50.0019 78.8594 50.1428 80.5844 50.6103L80.5812 50.6138ZM57.1125 55.2166L57.1437 59.7094H44.1219V100.406H34.9094V59.7094H21.9062V55.3059C21.9062 52.8516 21.9562 50.8131 22.0187 50.7581C22.0687 50.6859 29.9781 50.6516 39.5813 50.6688L57.0625 50.7237L57.1125 55.2166Z" fill="#04B500" fill-opacity="0.88"/>
</g>
</svg>
